<svg xmlns="http://www.w3.org/2000/svg" width="170.197" height="133.249" viewBox="0 0 170.197 133.249">
  <g id="Group_20" data-name="Group 20" transform="translate(-119.252 -111.822)">
    <g id="Layer_2" data-name="Layer 2" transform="translate(119.252 111.822)">
      <rect id="Rectangle_4" data-name="Rectangle 4" width="170.197" height="133.249" rx="1.179" fill="#5b5043"/>
    </g>
    <g id="Layer_1" data-name="Layer 1" transform="translate(135.649 131.729)">
      <g id="Group_19" data-name="Group 19">
        <path id="Path_4514" data-name="Path 4514" d="M164.358,162.441h27.728c13.884,0,23.14,8.059,23.14,20.906,0,10.453-6.224,18.033-15.959,20.347l18.272,26.571H210.6l-17.635-25.853H170.183v25.853h-5.825Zm5.825,5.745v30.481H192.8c9.814,0,16.6-6.224,16.6-15.32,0-9.176-6.862-15.161-17.315-15.161Z" transform="translate(-152.381 -150.507)" fill="#fff"/>
        <path id="Path_4515" data-name="Path 4515" d="M278.29,211.065c.782,8.437,8.437,14.062,17.968,14.062,9.922,0,16.562-5.937,16.8-12.89.156-9.61-8.906-12.11-17.031-14.219-10.234-2.578-21.171-3.984-21.171-18.046.078-11.172,9.687-16.64,21.249-16.64,11.328,0,20.624,6.484,21.093,17.5H311.57c-.7-7.5-7.187-12.031-15.468-12.031-8.672,0-15.468,3.984-15.625,11.172-.157,9.219,7.89,10.546,16.484,12.656,10.078,2.265,21.953,6.249,21.718,19.609-.078,9.452-8.828,18.28-22.343,18.358-12.734,0-22.89-7.5-23.671-19.531Z" transform="translate(-192.56 -150.838)" fill="#fff"/>
        <path id="Path_4516" data-name="Path 4516" d="M180.544,265.817H145.318V230.591" transform="translate(-145.318 -175.789)" fill="none" stroke="#fff" stroke-linecap="round" stroke-miterlimit="10" stroke-width="2"/>
        <path id="Path_4517" data-name="Path 4517" d="M309.244,143.574H344.47V178.8" transform="translate(-206.129 -143.508)" fill="none" stroke="#fff" stroke-linecap="round" stroke-miterlimit="10" stroke-width="2"/>
        <g id="Group_17" data-name="Group 17" transform="translate(67.559 20.897)">
          <g id="Group_16" data-name="Group 16">
            <path id="Path_4518" data-name="Path 4518" d="M255.76,186.16h3.726v.248h-4v-9.717h.276Z" transform="translate(-253.745 -176.691)" fill="#fff"/>
            <path id="Path_4519" data-name="Path 4519" d="M258.009,196.44v9.717h-.276V196.44Z" transform="translate(-254.579 -184.017)" fill="#fff"/>
            <path id="Path_4520" data-name="Path 4520" d="M259.3,225.914h-.276L253,216.708v9.207h-.276v-9.7H253l6.032,9.193v-9.193h.276Z" transform="translate(-252.719 -191.352)" fill="#fff"/>
            <path id="Path_4521" data-name="Path 4521" d="M254.838,236.186v4.486H258.9v.248h-4.058v4.486h4.472v.248h-4.748v-9.717h4.748v.248Z" transform="translate(-253.403 -198.67)" fill="#fff"/>
          </g>
        </g>
        <g id="Group_18" data-name="Group 18" transform="translate(69.028)">
          <line id="Line_7" data-name="Line 7" y2="11.931" fill="none" stroke="#fff" stroke-linecap="round" stroke-miterlimit="10" stroke-width="0.5"/>
          <line id="Line_8" data-name="Line 8" y2="11.931" transform="translate(0 78.097)" fill="none" stroke="#fff" stroke-linecap="round" stroke-miterlimit="10" stroke-width="0.5"/>
        </g>
      </g>
    </g>
  </g>
</svg>
